<svg width="310" height="310" viewBox="0 0 310 310" fill="none" xmlns="http://www.w3.org/2000/svg">
<path d="M222.468 51.4601C192.857 30.1941 142.308 24.6947 115.94 33.5855C68.3859 49.6311 60.7599 80.8109 61.2745 108.686C61.7891 136.561 97.5197 160.499 107.03 184.865C116.541 209.231 133.982 241.986 167.666 231.954C201.351 221.923 199.906 185.653 210.112 161.163C220.317 136.673 247.008 111.563 245.557 89.0817C244.546 73.3833 235.55 60.8903 222.468 51.4601Z" fill="#6EB6FF"/>
<path opacity="0.7" d="M222.468 51.4601C192.857 30.1941 142.308 24.6947 115.94 33.5855C68.3859 49.6311 60.7599 80.8109 61.2745 108.686C61.7891 136.561 97.5197 160.499 107.03 184.865C116.541 209.231 133.982 241.986 167.666 231.954C201.351 221.923 199.906 185.653 210.112 161.163C220.317 136.673 247.008 111.563 245.557 89.0817C244.546 73.3833 235.55 60.8903 222.468 51.4601Z" fill="white"/>
<path opacity="0.2" d="M141.732 72.3604H60.2824C57.3548 72.3604 54.9814 74.7337 54.9814 77.6614V136.437C54.9814 139.365 57.3548 141.738 60.2824 141.738H141.732C144.66 141.738 147.033 139.365 147.033 136.437V77.6614C147.033 74.7337 144.66 72.3604 141.732 72.3604Z" fill="black"/>
<path d="M139.451 68.7085H58.0012C55.0735 68.7085 52.7002 71.0818 52.7002 74.0095V132.785C52.7002 135.713 55.0735 138.087 58.0012 138.087H139.451C142.378 138.087 144.752 135.713 144.752 132.785V74.0095C144.752 71.0818 142.378 68.7085 139.451 68.7085Z" fill="white" stroke="#263238" stroke-linecap="round" stroke-linejoin="round"/>
<path d="M82.46 100.44L62.7812 106.826C61.0851 101.604 61.5327 95.9215 64.0255 91.029C66.5182 86.1365 70.8521 82.4343 76.074 80.7366C78.1319 80.0475 80.2898 79.7039 82.46 79.7198V100.44Z" fill="#6EB6FF" stroke="#263238" stroke-linecap="round" stroke-linejoin="round"/>
<path d="M82.46 100.44L94.6307 117.18C90.1889 120.405 84.6482 121.734 79.2267 120.875C73.8052 120.016 68.9469 117.039 65.72 112.598C64.4284 110.85 63.4354 108.899 62.7812 106.826L82.46 100.44Z" fill="white" stroke="#263238" stroke-linecap="round" stroke-linejoin="round"/>
<path d="M82.46 100.44L102.151 94.0415C103.554 98.1929 103.581 102.686 102.228 106.854C100.876 111.022 98.2157 114.643 94.643 117.18L82.46 100.44Z" fill="#263238" stroke="#263238" stroke-linecap="round" stroke-linejoin="round"/>
<path d="M82.46 100.44V79.7323C86.8446 79.6824 91.1285 81.0477 94.6757 83.6255C98.223 86.2033 100.844 89.8561 102.151 94.0419L82.46 100.44Z" fill="white" stroke="#263238" stroke-linecap="round" stroke-linejoin="round"/>
<path d="M82.4914 113.336C89.6205 113.336 95.3998 107.557 95.3998 100.428C95.3998 93.2988 89.6205 87.5195 82.4914 87.5195C75.3623 87.5195 69.583 93.2988 69.583 100.428C69.583 107.557 75.3623 113.336 82.4914 113.336Z" fill="white" stroke="#263238" stroke-linecap="round" stroke-linejoin="round"/>
<path d="M137.361 78.4673H108.996V80.8171H137.361V78.4673Z" fill="#6EB6FF" stroke="#263238" stroke-linecap="round" stroke-linejoin="round"/>
<path d="M131.26 83.4956H108.996V85.8454H131.26V83.4956Z" fill="#263238" stroke="#263238" stroke-linecap="round" stroke-linejoin="round"/>
<path d="M125.358 88.5239H108.996V90.8737H125.358V88.5239Z" fill="white" stroke="#263238" stroke-linecap="round" stroke-linejoin="round"/>
<path d="M132.246 93.5518H108.996V95.9016H132.246V93.5518Z" fill="#6EB6FF" stroke="#263238" stroke-linecap="round" stroke-linejoin="round"/>
<path d="M120.044 98.5801H108.996V100.93H120.044V98.5801Z" fill="#263238" stroke="#263238" stroke-linecap="round" stroke-linejoin="round"/>
<path d="M137.361 103.614H108.996V105.964H137.361V103.614Z" fill="white" stroke="#263238" stroke-linecap="round" stroke-linejoin="round"/>
<path d="M129.884 108.643H108.996V110.992H129.884V108.643Z" fill="#6EB6FF" stroke="#263238" stroke-linecap="round" stroke-linejoin="round"/>
<path d="M127.249 113.671H108.996V116.021H127.249V113.671Z" fill="#263238" stroke="#263238" stroke-linecap="round" stroke-linejoin="round"/>
<path d="M137.361 118.699H108.996V121.049H137.361V118.699Z" fill="white" stroke="#263238" stroke-linecap="round" stroke-linejoin="round"/>
<path d="M71.9326 125.55H93.9178" stroke="#263238" stroke-linecap="round" stroke-linejoin="round"/>
<path d="M68.8203 128.65H97.0303" stroke="#263238" stroke-linecap="round" stroke-linejoin="round"/>
<path d="M109.753 125.55H131.738" stroke="#263238" stroke-linecap="round" stroke-linejoin="round"/>
<path d="M106.641 128.65H134.851" stroke="#263238" stroke-linecap="round" stroke-linejoin="round"/>
<path opacity="0.2" d="M142.185 170.674H72.2365C69.3089 170.674 66.9355 173.047 66.9355 175.975V226.083C66.9355 229.011 69.3089 231.384 72.2365 231.384H142.185C145.113 231.384 147.486 229.011 147.486 226.083V175.975C147.486 173.047 145.113 170.674 142.185 170.674Z" fill="black"/>
<path d="M139.445 167.487H69.4963C66.5686 167.487 64.1953 169.86 64.1953 172.788V222.896C64.1953 225.824 66.5686 228.197 69.4963 228.197H139.445C142.372 228.197 144.746 225.824 144.746 222.896V172.788C144.746 169.86 142.372 167.487 139.445 167.487Z" fill="white" stroke="#263238" stroke-linecap="round" stroke-linejoin="round"/>
<path d="M69.7129 196.348H80.4575" stroke="#263238" stroke-linecap="round" stroke-linejoin="round"/>
<path d="M69.7129 198.778H86.7071" stroke="#263238" stroke-linecap="round" stroke-linejoin="round"/>
<path d="M69.7129 201.203H80.4575" stroke="#263238" stroke-linecap="round" stroke-linejoin="round"/>
<path d="M69.7129 203.626H85.2129" stroke="#263238" stroke-linecap="round" stroke-linejoin="round"/>
<path d="M69.7129 206.057H80.4575" stroke="#263238" stroke-linecap="round" stroke-linejoin="round"/>
<path d="M69.7129 208.481H88.6973" stroke="#263238" stroke-linecap="round" stroke-linejoin="round"/>
<path d="M96.6211 196.348H107.366" stroke="#263238" stroke-linecap="round" stroke-linejoin="round"/>
<path d="M96.6211 198.778H113.615" stroke="#263238" stroke-linecap="round" stroke-linejoin="round"/>
<path d="M96.6211 201.203H107.366" stroke="#263238" stroke-linecap="round" stroke-linejoin="round"/>
<path d="M96.6211 203.626H112.121" stroke="#263238" stroke-linecap="round" stroke-linejoin="round"/>
<path d="M96.6211 206.057H107.366" stroke="#263238" stroke-linecap="round" stroke-linejoin="round"/>
<path d="M96.6211 208.481H115.606" stroke="#263238" stroke-linecap="round" stroke-linejoin="round"/>
<path d="M123.529 196.348H134.274" stroke="#263238" stroke-linecap="round" stroke-linejoin="round"/>
<path d="M123.529 198.778H140.517" stroke="#263238" stroke-linecap="round" stroke-linejoin="round"/>
<path d="M123.529 201.203H134.274" stroke="#263238" stroke-linecap="round" stroke-linejoin="round"/>
<path d="M123.529 203.626H139.023" stroke="#263238" stroke-linecap="round" stroke-linejoin="round"/>
<path d="M123.529 206.057H134.274" stroke="#263238" stroke-linecap="round" stroke-linejoin="round"/>
<path d="M123.529 208.481H142.514" stroke="#263238" stroke-linecap="round" stroke-linejoin="round"/>
<path d="M89.8192 188.375H69.0244V192.535H89.8192V188.375Z" fill="#263238"/>
<path d="M117.199 188.375H96.4043V192.535H117.199V188.375Z" fill="#263238"/>
<path d="M144.578 188.375H123.783V192.535H144.578V188.375Z" fill="#263238"/>
<path d="M93.0625 188.133V209.182" stroke="#263238" stroke-linecap="round" stroke-linejoin="round"/>
<path d="M120.218 188.133V209.182" stroke="#263238" stroke-linecap="round" stroke-linejoin="round"/>
<path d="M77.5005 178.517L82.0017 177.054C82.2904 177.943 82.3089 178.899 82.0548 179.799C81.8006 180.699 81.2853 181.504 80.5739 182.111C79.8626 182.719 78.9871 183.102 78.0581 183.212C77.1292 183.322 76.1885 183.154 75.355 182.729C74.5215 182.305 73.8325 181.642 73.3753 180.826C72.918 180.01 72.7129 179.077 72.7859 178.145C72.8589 177.212 73.2068 176.322 73.7855 175.587C74.3643 174.852 75.1479 174.305 76.0373 174.016C76.5091 173.859 77.0035 173.782 77.5005 173.786V178.517Z" fill="#6EB6FF" stroke="#263238" stroke-width="0.5" stroke-miterlimit="10"/>
<path d="M77.5 178.517V173.786C78.502 173.774 79.4812 174.085 80.2921 174.674C81.103 175.262 81.7024 176.097 82.0012 177.053L77.5 178.517Z" fill="#263238" stroke="#263238" stroke-width="0.5" stroke-miterlimit="10"/>
<path d="M123.07 178.517L127.571 177.054C127.861 177.944 127.879 178.899 127.625 179.8C127.371 180.701 126.856 181.506 126.144 182.113C125.433 182.721 124.557 183.104 123.627 183.214C122.698 183.323 121.757 183.155 120.924 182.73C120.09 182.305 119.401 181.642 118.944 180.826C118.487 180.009 118.283 179.075 118.357 178.142C118.43 177.21 118.779 176.32 119.359 175.585C119.939 174.851 120.723 174.304 121.613 174.016C122.083 173.859 122.575 173.782 123.07 173.786V178.517Z" fill="#6EB6FF" stroke="#263238" stroke-width="0.5" stroke-miterlimit="10"/>
<path d="M123.07 178.517V173.786C124.073 173.773 125.052 174.084 125.863 174.673C126.674 175.261 127.274 176.096 127.572 177.053L123.07 178.517Z" fill="#263238" stroke="#263238" stroke-width="0.5" stroke-miterlimit="10"/>
<path d="M92.7023 178.517V183.247C91.4476 183.247 90.2444 182.749 89.3572 181.862C88.4701 180.975 87.9717 179.771 87.9717 178.517C87.9717 177.262 88.4701 176.059 89.3572 175.172C90.2444 174.285 91.4476 173.786 92.7023 173.786V178.517Z" fill="#6EB6FF" stroke="#263238" stroke-width="0.5" stroke-miterlimit="10"/>
<path d="M92.7021 178.517V173.786C93.9568 173.786 95.16 174.285 96.0472 175.172C96.9343 176.059 97.4327 177.262 97.4327 178.517C97.4327 179.771 96.9343 180.975 96.0472 181.862C95.16 182.749 93.9568 183.247 92.7021 183.247V178.517Z" fill="#263238" stroke="#263238" stroke-width="0.5" stroke-miterlimit="10"/>
<path d="M107.881 178.517L112.382 179.98C112.19 180.571 111.883 181.118 111.479 181.591C111.075 182.064 110.583 182.452 110.029 182.734C109.475 183.016 108.871 183.186 108.251 183.235C107.632 183.284 107.008 183.21 106.417 183.018C105.826 182.826 105.279 182.519 104.806 182.115C104.334 181.711 103.945 181.219 103.663 180.665C103.381 180.111 103.211 179.507 103.162 178.887C103.113 178.268 103.187 177.645 103.379 177.053C103.678 176.097 104.278 175.262 105.088 174.674C105.899 174.085 106.879 173.774 107.881 173.786V178.517Z" fill="#6EB6FF" stroke="#263238" stroke-width="0.5" stroke-miterlimit="10"/>
<path d="M107.88 178.517V173.786C108.502 173.785 109.117 173.907 109.692 174.144C110.267 174.382 110.789 174.73 111.229 175.17C111.669 175.609 112.018 176.131 112.256 176.705C112.494 177.279 112.617 177.895 112.617 178.517C112.619 179.014 112.54 179.509 112.381 179.98L107.88 178.517Z" fill="#263238" stroke="#263238" stroke-width="0.5" stroke-miterlimit="10"/>
<path d="M138.26 178.517L142.762 179.98C142.569 180.571 142.263 181.118 141.859 181.591C141.455 182.064 140.962 182.452 140.409 182.734C139.855 183.016 139.251 183.186 138.631 183.235C138.011 183.284 137.388 183.21 136.797 183.018C136.206 182.826 135.659 182.519 135.186 182.115C134.713 181.711 134.325 181.219 134.043 180.665C133.761 180.111 133.591 179.507 133.542 178.887C133.493 178.268 133.567 177.645 133.759 177.053C134.058 176.097 134.657 175.262 135.468 174.674C136.279 174.085 137.258 173.774 138.26 173.786V178.517Z" fill="#6EB6FF" stroke="#263238" stroke-width="0.5" stroke-miterlimit="10"/>
<path d="M138.26 178.517V173.786C138.881 173.785 139.497 173.907 140.071 174.145C140.645 174.382 141.167 174.73 141.607 175.17C142.046 175.609 142.394 176.131 142.632 176.705C142.869 177.28 142.991 177.895 142.99 178.517C142.995 179.014 142.917 179.508 142.761 179.98L138.26 178.517Z" fill="#263238" stroke="#263238" stroke-width="0.5" stroke-miterlimit="10"/>
<path d="M139.19 221.464H135.049V222.865H139.19V221.464Z" fill="#6EB6FF" stroke="#263238" stroke-width="0.75" stroke-linecap="round" stroke-linejoin="round"/>
<path d="M134.59 214.464H130.448V222.865H134.59V214.464Z" fill="#263238" stroke="#263238" stroke-width="0.75" stroke-linecap="round" stroke-linejoin="round"/>
<path d="M129.995 217.484H125.854V222.872H129.995V217.484Z" fill="white" stroke="#263238" stroke-width="0.75" stroke-linecap="round" stroke-linejoin="round"/>
<path d="M125.396 213.28H121.254V222.865H125.396V213.28Z" fill="#6EB6FF" stroke="#263238" stroke-width="0.75" stroke-linecap="round" stroke-linejoin="round"/>
<path d="M120.795 220.392H116.653V222.872H120.795V220.392Z" fill="#263238" stroke="#263238" stroke-width="0.75" stroke-linecap="round" stroke-linejoin="round"/>
<path d="M116.194 219.635H112.053V222.865H116.194V219.635Z" fill="white" stroke="#263238" stroke-width="0.75" stroke-linecap="round" stroke-linejoin="round"/>
<path d="M111.594 216.405H107.452V222.871H111.594V216.405Z" fill="#6EB6FF" stroke="#263238" stroke-width="0.75" stroke-linecap="round" stroke-linejoin="round"/>
<path d="M106.993 221.792H102.852V222.871H106.993V221.792Z" fill="#263238" stroke="#263238" stroke-width="0.75" stroke-linecap="round" stroke-linejoin="round"/>
<path d="M102.394 214.464H98.252V222.865H102.394V214.464Z" fill="white" stroke="#263238" stroke-width="0.75" stroke-linecap="round" stroke-linejoin="round"/>
<path d="M97.793 216.083H93.6514V222.872H97.793V216.083Z" fill="#6EB6FF" stroke="#263238" stroke-width="0.75" stroke-linecap="round" stroke-linejoin="round"/>
<path d="M93.1982 222.543H89.0566V222.865H93.1982V222.543Z" fill="#263238" stroke="#263238" stroke-width="0.75" stroke-linecap="round" stroke-linejoin="round"/>
<path d="M88.5986 222.438H84.457V222.865H88.5986V222.438Z" fill="white" stroke="#263238" stroke-width="0.75" stroke-linecap="round" stroke-linejoin="round"/>
<path d="M83.998 217.484H79.8564V222.872H83.998V217.484Z" fill="#6EB6FF" stroke="#263238" stroke-width="0.75" stroke-linecap="round" stroke-linejoin="round"/>
<path d="M79.3975 221.792H75.2559V222.871H79.3975V221.792Z" fill="#263238" stroke="#263238" stroke-width="0.75" stroke-linecap="round" stroke-linejoin="round"/>
<path d="M74.7969 220.714H70.6553V222.871H74.7969V220.714Z" fill="white" stroke="#263238" stroke-width="0.75" stroke-linecap="round" stroke-linejoin="round"/>
<path opacity="0.2" d="M251.069 118.11H169.619C166.692 118.11 164.318 120.483 164.318 123.411V182.187C164.318 185.115 166.692 187.488 169.619 187.488H251.069C253.996 187.488 256.37 185.115 256.37 182.187V123.411C256.37 120.483 253.996 118.11 251.069 118.11Z" fill="black"/>
<path d="M247.876 114.464H166.427C163.499 114.464 161.126 116.838 161.126 119.765V178.541C161.126 181.469 163.499 183.842 166.427 183.842H247.876C250.804 183.842 253.177 181.469 253.177 178.541V119.765C253.177 116.838 250.804 114.464 247.876 114.464Z" fill="white" stroke="#263238" stroke-linecap="round" stroke-linejoin="round"/>
<path d="M247.38 168.746H242.606V174.04H247.38V168.746Z" fill="#6EB6FF" stroke="#263238" stroke-width="0.75" stroke-linecap="round" stroke-linejoin="round"/>
<path d="M242.073 142.271H237.299V174.034H242.073V142.271Z" fill="#263238" stroke="#263238" stroke-width="0.75" stroke-linecap="round" stroke-linejoin="round"/>
<path d="M236.766 153.68H231.992V174.04H236.766V153.68Z" fill="white" stroke="#263238" stroke-width="0.75" stroke-linecap="round" stroke-linejoin="round"/>
<path d="M231.464 137.795H226.69V174.04H231.464V137.795Z" fill="#6EB6FF" stroke="#263238" stroke-width="0.75" stroke-linecap="round" stroke-linejoin="round"/>
<path d="M226.158 164.672H221.384V174.04H226.158V164.672Z" fill="#263238" stroke="#263238" stroke-width="0.75" stroke-linecap="round" stroke-linejoin="round"/>
<path d="M220.85 161.82H216.076V174.034H220.85V161.82Z" fill="white" stroke="#263238" stroke-width="0.75" stroke-linecap="round" stroke-linejoin="round"/>
<path d="M215.549 149.606H210.775V174.04H215.549V149.606Z" fill="#6EB6FF" stroke="#263238" stroke-width="0.75" stroke-linecap="round" stroke-linejoin="round"/>
<path d="M210.242 169.967H205.468V174.04H210.242V169.967Z" fill="#263238" stroke="#263238" stroke-width="0.75" stroke-linecap="round" stroke-linejoin="round"/>
<path d="M204.935 142.271H200.161V174.034H204.935V142.271Z" fill="white" stroke="#263238" stroke-width="0.75" stroke-linecap="round" stroke-linejoin="round"/>
<path d="M199.634 148.385H194.86V174.04H199.634V148.385Z" fill="#6EB6FF" stroke="#263238" stroke-width="0.75" stroke-linecap="round" stroke-linejoin="round"/>
<path d="M194.327 172.812H189.553V174.034H194.327V172.812Z" fill="#263238" stroke="#263238" stroke-width="0.75" stroke-linecap="round" stroke-linejoin="round"/>
<path d="M189.02 172.41H184.246V174.04H189.02V172.41Z" fill="white" stroke="#263238" stroke-width="0.75" stroke-linecap="round" stroke-linejoin="round"/>
<path d="M183.712 153.68H178.938V174.04H183.712V153.68Z" fill="#6EB6FF" stroke="#263238" stroke-width="0.75" stroke-linecap="round" stroke-linejoin="round"/>
<path d="M178.412 169.967H173.638V174.04H178.412V169.967Z" fill="#263238" stroke="#263238" stroke-width="0.75" stroke-linecap="round" stroke-linejoin="round"/>
<path d="M173.104 165.894H168.33V174.04H173.104V165.894Z" fill="white" stroke="#263238" stroke-width="0.75" stroke-linecap="round" stroke-linejoin="round"/>
<path d="M247.69 128.96H168.95V132.99H247.69V128.96Z" fill="#6EB6FF" stroke="#263238" stroke-miterlimit="10"/>
<path d="M202.467 129.251H189.695V132.692H202.467V129.251Z" fill="#263238" stroke="#263238" stroke-miterlimit="10"/>
<path d="M226.97 129.251H202.982V132.692H226.97V129.251Z" fill="white" stroke="#263238" stroke-miterlimit="10"/>
<path opacity="0.2" d="M241.026 43.1582H177.141C174.213 43.1582 171.84 45.5315 171.84 48.4592V93.9982C171.84 96.9259 174.213 99.2992 177.141 99.2992H241.026C243.953 99.2992 246.327 96.9259 246.327 93.9982V48.4592C246.327 45.5315 243.953 43.1582 241.026 43.1582Z" fill="black"/>
<path d="M238.284 39.5127H174.4C171.472 39.5127 169.099 41.886 169.099 44.8137V90.3527C169.099 93.2804 171.472 95.6537 174.4 95.6537H238.284C241.212 95.6537 243.585 93.2804 243.585 90.3527V44.8137C243.585 41.886 241.212 39.5127 238.284 39.5127Z" fill="white" stroke="#263238" stroke-linecap="round" stroke-linejoin="round"/>
<path d="M172.559 90.396H242.495" stroke="#263238" stroke-width="0.5" stroke-miterlimit="10"/>
<path d="M172.559 90.396V91.4314" stroke="#263238" stroke-width="0.5" stroke-miterlimit="10"/>
<path d="M177.221 90.396V91.4314" stroke="#263238" stroke-width="0.5" stroke-miterlimit="10"/>
<path d="M181.884 90.396V91.4314" stroke="#263238" stroke-width="0.5" stroke-miterlimit="10"/>
<path d="M186.546 90.396V91.4314" stroke="#263238" stroke-width="0.5" stroke-miterlimit="10"/>
<path d="M191.208 90.396V91.4314" stroke="#263238" stroke-width="0.5" stroke-miterlimit="10"/>
<path d="M195.871 90.396V91.4314" stroke="#263238" stroke-width="0.5" stroke-miterlimit="10"/>
<path d="M200.533 90.396V91.4314" stroke="#263238" stroke-width="0.5" stroke-miterlimit="10"/>
<path d="M205.195 90.396V91.4314" stroke="#263238" stroke-width="0.5" stroke-miterlimit="10"/>
<path d="M209.857 90.396V91.4314" stroke="#263238" stroke-width="0.5" stroke-miterlimit="10"/>
<path d="M214.521 90.396V91.4314" stroke="#263238" stroke-width="0.5" stroke-miterlimit="10"/>
<path d="M219.183 90.396V91.4314" stroke="#263238" stroke-width="0.5" stroke-miterlimit="10"/>
<path d="M223.845 90.396V91.4314" stroke="#263238" stroke-width="0.5" stroke-miterlimit="10"/>
<path d="M228.508 90.396V91.4314" stroke="#263238" stroke-width="0.5" stroke-miterlimit="10"/>
<path d="M233.17 90.396V91.4314" stroke="#263238" stroke-width="0.5" stroke-miterlimit="10"/>
<path d="M237.832 90.396V91.4314" stroke="#263238" stroke-width="0.5" stroke-miterlimit="10"/>
<path d="M242.494 90.396V91.4314" stroke="#263238" stroke-width="0.5" stroke-miterlimit="10"/>
<path d="M174.89 89.5528H240.163V80.5318L235.544 71.6038C235.514 71.5409 235.493 71.4741 235.482 71.4054L231.378 44.9252C231.378 44.7936 231.326 44.6675 231.233 44.5745C231.14 44.4815 231.013 44.4292 230.882 44.4292C230.75 44.4292 230.624 44.4815 230.531 44.5745C230.438 44.6675 230.386 44.7936 230.386 44.9252L226.207 77.252C226.187 77.4069 226.11 77.5486 225.99 77.6488L221.966 80.7488C221.908 80.7919 221.841 80.8211 221.77 80.8341C221.699 80.8472 221.626 80.8436 221.556 80.8239C221.487 80.8041 221.423 80.7686 221.369 80.7201C221.315 80.6716 221.274 80.6114 221.247 80.5442L217.192 72.1804C217.162 72.1019 217.112 72.033 217.046 71.981C216.98 71.929 216.901 71.8958 216.818 71.885C216.734 71.8742 216.65 71.8862 216.573 71.9196C216.496 71.9531 216.429 72.0068 216.38 72.075L212.189 77.5L207.526 83.514L202.864 77.5L198.753 72.199C198.7 72.1249 198.625 72.0682 198.539 72.0357C198.454 72.0032 198.36 71.9965 198.271 72.0162C198.182 72.0359 198.1 72.0813 198.036 72.1468C197.972 72.2123 197.928 72.2951 197.91 72.385L193.57 85.9196L188.908 61.7954L184.245 88.3252L179.583 84.7168L175.863 74.2388C175.652 73.6188 174.896 73.8172 174.896 74.462L174.89 89.5528Z" fill="#6EB6FF"/>
<path d="M240.163 89.5714H174.89V81.84L179.502 74.1644C179.535 74.1114 179.556 74.0524 179.564 73.9908L183.669 51.2182C183.691 51.1024 183.753 50.9979 183.844 50.9228C183.936 50.8477 184.05 50.8066 184.168 50.8066C184.286 50.8066 184.4 50.8477 184.491 50.9228C184.582 50.9979 184.645 51.1024 184.667 51.2182L188.84 79.019C188.866 79.1578 188.946 79.2804 189.063 79.36L193.087 82.0385C193.144 82.0772 193.21 82.1036 193.278 82.1158C193.347 82.1281 193.417 82.126 193.484 82.1097C193.552 82.0933 193.615 82.0632 193.671 82.021C193.726 81.9789 193.772 81.9257 193.806 81.8648L197.854 74.6728C197.894 74.6033 197.949 74.5442 198.016 74.5003C198.083 74.4565 198.159 74.4292 198.238 74.4207C198.318 74.4122 198.398 74.4228 198.472 74.4515C198.547 74.4803 198.614 74.5264 198.667 74.586L202.864 79.236L207.526 84.4068L212.189 79.236L216.293 74.679C216.352 74.6152 216.426 74.5674 216.508 74.5401C216.59 74.5128 216.678 74.5069 216.763 74.5231C216.848 74.5392 216.927 74.5768 216.994 74.6323C217.06 74.6878 217.112 74.7594 217.143 74.8402L221.483 86.4776H226.145L230.807 88.5485L235.47 85.4485L239.19 76.4398C239.231 76.3275 239.311 76.2335 239.415 76.1748C239.52 76.1162 239.641 76.0967 239.759 76.1198C239.876 76.143 239.981 76.2074 240.056 76.3013C240.13 76.3952 240.168 76.5125 240.163 76.632V89.5714Z" fill="#263238"/>
<path d="M210.236 46.9961H224.682" stroke="#263238" stroke-linecap="round" stroke-linejoin="round"/>
<path d="M210.236 50.3813H224.682" stroke="#263238" stroke-linecap="round" stroke-linejoin="round"/>
<path d="M210.236 53.7603H224.682" stroke="#263238" stroke-linecap="round" stroke-linejoin="round"/>
<path d="M210.236 57.1455H224.682" stroke="#263238" stroke-linecap="round" stroke-linejoin="round"/>
<path d="M210.236 60.5244H224.682" stroke="#263238" stroke-linecap="round" stroke-linejoin="round"/>
<path d="M210.236 63.9097H224.682" stroke="#263238" stroke-linecap="round" stroke-linejoin="round"/>
<path d="M206.95 46.9961H208.761" stroke="#263238" stroke-linecap="round" stroke-linejoin="round"/>
<path d="M206.95 50.3813H208.761" stroke="#263238" stroke-linecap="round" stroke-linejoin="round"/>
<path d="M206.95 53.7603H208.761" stroke="#263238" stroke-linecap="round" stroke-linejoin="round"/>
<path d="M206.95 57.1455H208.761" stroke="#263238" stroke-linecap="round" stroke-linejoin="round"/>
<path d="M206.95 60.5244H208.761" stroke="#263238" stroke-linecap="round" stroke-linejoin="round"/>
<path d="M206.95 63.9097H208.761" stroke="#263238" stroke-linecap="round" stroke-linejoin="round"/>
<path d="M153.45 277.76C173.804 277.76 190.303 269.571 190.303 259.47C190.303 249.369 173.804 241.18 153.45 241.18C133.097 241.18 116.598 249.369 116.598 259.47C116.598 269.571 133.097 277.76 153.45 277.76Z" fill="#6EB6FF"/>
<path opacity="0.5" d="M153.45 277.76C173.804 277.76 190.303 269.571 190.303 259.47C190.303 249.369 173.804 241.18 153.45 241.18C133.097 241.18 116.598 249.369 116.598 259.47C116.598 269.571 133.097 277.76 153.45 277.76Z" fill="white"/>
<path d="M141.068 121.595C141.068 121.595 131.606 155.341 131.606 157.939C131.606 160.153 134.706 164.573 138.129 162.8C141.551 161.027 142.326 155.509 142.326 155.509L141.068 121.595Z" fill="white" stroke="#263238" stroke-linecap="round" stroke-linejoin="round"/>
<path d="M166.377 259.83C166.377 259.83 161.534 266.371 161.169 269.13C160.803 271.889 164.548 272.106 166.197 270.822C167.846 269.539 171.281 261.169 171.281 261.169L166.377 259.83Z" fill="white" stroke="#263238" stroke-linecap="round" stroke-linejoin="round"/>
<path d="M139.952 244.082C139.952 244.082 131.663 247.566 131.663 249.556C131.663 251.547 135.972 251.044 139.103 249.885C142.234 248.726 147.225 246.735 147.225 246.735C147.225 246.735 142.439 243.586 139.952 244.082Z" fill="white" stroke="#263238" stroke-linecap="round" stroke-linejoin="round"/>
<path d="M142.55 165.342L142.271 176.117C142.271 176.117 140.119 195.846 139.121 206.46C138.123 217.075 141.279 241.441 141.279 241.441L139.784 242.929V244.423L147.224 246.742C147.556 245.211 147.778 243.66 147.888 242.098V239.618L155.681 193.037C155.681 193.037 161.813 240.12 162.811 245.588C163.809 251.057 165.291 256.86 165.291 256.86L164.795 258.515L165.452 261.504L170.592 262.831C171.461 261.489 171.975 259.949 172.086 258.354C172.415 255.366 172.582 248.403 172.582 248.403C172.582 248.403 172.254 224.223 173.413 207.793C174.103 197.688 173.992 187.544 173.078 177.457L172.254 166.52C162.557 169.883 151.949 169.462 142.55 165.342Z" fill="#263238" stroke="#263238" stroke-linecap="round" stroke-linejoin="round"/>
<path d="M155.7 193.025L154.869 186.893L151.559 183.415" stroke="white" stroke-linecap="round" stroke-linejoin="round"/>
<path d="M167.306 171.312C167.306 171.312 164.981 175.622 171.28 177.612" stroke="white" stroke-linecap="round" stroke-linejoin="round"/>
<path d="M171.28 179.602V256.184" stroke="white" stroke-linecap="round" stroke-linejoin="round"/>
<path d="M150.393 172.304L151.056 176.285C151.056 176.285 149.401 179.267 150.064 180.594" stroke="white" stroke-linecap="round" stroke-linejoin="round"/>
<path d="M153.716 117.292C153.716 117.292 141.285 120.931 141.068 121.595C140.851 122.258 142.55 165.342 142.55 165.342C142.55 165.342 145.867 170.426 154.95 171.201C164.033 171.976 172.632 167.221 172.632 167.221L178.559 127.993C178.559 127.993 164.299 118.265 163.307 118.042C162.315 117.819 156.481 116.517 153.716 117.292Z" fill="white" stroke="#263238" stroke-linecap="round" stroke-linejoin="round"/>
<path d="M152.86 125.575L155.812 132.816L160.858 127.1C160.858 127.1 160.48 123.479 157.138 123.101C156.249 122.957 155.338 123.125 154.558 123.575C153.779 124.026 153.179 124.733 152.86 125.575Z" fill="#263238" stroke="#263238" stroke-linecap="round" stroke-linejoin="round"/>
<path d="M153.717 117.292L148.478 125.575C148.478 125.575 151.528 124.812 152.954 126.052C154.38 127.292 156.004 128.625 156.004 128.625C156.004 128.625 158.484 126.623 160.481 127.292C161.848 127.795 163.131 128.502 164.288 129.388C164.288 129.388 165.528 121.198 163.909 117.484C162.291 113.77 157.145 112.431 153.717 117.292Z" fill="white" stroke="#263238" stroke-linecap="round" stroke-linejoin="round"/>
<path d="M155.049 118.24C154.889 120.651 154.858 123.068 154.956 125.482C155.142 128.532 156.097 129.202 157.237 127.199C158.378 125.197 160.957 119.102 160.957 117.385C160.961 116.303 161.023 115.223 161.143 114.148C161.143 114.148 157.144 118.42 155.049 118.24Z" fill="white" stroke="#263238" stroke-linecap="round" stroke-linejoin="round"/>
<path d="M155.812 132.816L150.858 158.057L154.194 166.439L158.292 159.582L155.812 132.816Z" fill="#263238" stroke="#263238" stroke-linecap="round" stroke-linejoin="round"/>
<path d="M165.539 155.837C165.539 155.837 154.379 149.098 153.387 148.217C152.395 147.337 152.389 147.994 151.614 148.434C150.839 148.874 147.969 152.303 147.417 153.394C146.865 154.485 145.978 156.048 147.088 156.271C148.198 156.494 149.078 154.411 149.078 154.058C149.078 153.704 150.734 151.85 150.734 151.85C150.734 151.85 149.078 155.825 149.63 156.159C150.182 156.494 153.939 158.019 154.714 158.019C155.489 158.019 156.035 156.581 156.035 156.581C156.035 156.581 157.145 158.019 158.248 157.908C158.911 157.834 159.548 157.607 160.108 157.244L163.865 160.226L165.539 155.837Z" fill="white" stroke="#263238" stroke-linecap="round" stroke-linejoin="round"/>
<path d="M165.54 155.837C165.54 155.837 164.151 155 162.316 153.878L160.679 157.716L163.884 160.258L165.54 155.837Z" fill="white" stroke="#263238" stroke-linecap="round" stroke-linejoin="round"/>
<path d="M151.057 156.947C151.057 156.947 151.391 153.407 152.83 151.417" stroke="#263238" stroke-linecap="round" stroke-linejoin="round"/>
<path d="M152.935 157.387C152.935 157.387 153.71 154.287 155.26 152.526" stroke="#263238" stroke-linecap="round" stroke-linejoin="round"/>
<path d="M173.935 129.983C171.284 132.327 169.461 135.465 168.739 138.93L175.702 158.72C175.702 158.72 167.412 155.291 166.402 155.186C165.391 155.081 161.869 159.935 162.868 161.039C163.866 162.142 183.328 173.085 184.524 171.647C185.721 170.209 179.564 131.093 178.888 129.654C178.213 128.216 178.671 127.447 176.346 127.112" fill="white"/>
<path d="M173.935 129.983C171.284 132.327 169.461 135.465 168.739 138.93L175.702 158.72C175.702 158.72 167.412 155.291 166.402 155.186C165.391 155.081 161.869 159.935 162.868 161.039C163.866 162.142 183.328 173.085 184.524 171.647C185.721 170.209 179.564 131.093 178.888 129.654C178.213 128.216 178.671 127.447 176.346 127.112" stroke="#263238" stroke-linecap="round" stroke-linejoin="round"/>
<path d="M175.701 158.72C175.701 158.72 179.682 159.607 180.785 161.702L175.701 158.72Z" fill="white"/>
<path d="M175.701 158.72C175.701 158.72 179.682 159.607 180.785 161.702" stroke="#263238" stroke-linecap="round" stroke-linejoin="round"/>
<path d="M131.21 142.42L140.088 162.26C140.181 162.457 140.342 162.614 140.541 162.701L153.245 167.909C153.397 167.974 153.564 167.993 153.727 167.964C153.89 167.936 154.041 167.86 154.161 167.747C154.282 167.634 154.366 167.488 154.405 167.327C154.444 167.166 154.435 166.998 154.379 166.842L147.268 147.622C147.143 147.285 146.947 146.979 146.692 146.725C146.437 146.471 146.13 146.276 145.792 146.153L132.289 141.261C132.13 141.198 131.955 141.184 131.788 141.221C131.621 141.259 131.469 141.346 131.353 141.471C131.236 141.597 131.16 141.755 131.134 141.924C131.109 142.093 131.135 142.266 131.21 142.42Z" fill="#6EB6FF" stroke="#263238" stroke-linecap="round" stroke-linejoin="round"/>
<path d="M134.539 152.997C134.415 152.972 134.287 152.975 134.164 153.008C134.042 153.041 133.929 153.102 133.834 153.186C133.74 153.271 133.666 153.376 133.619 153.494C133.573 153.612 133.554 153.739 133.566 153.865C133.563 154.151 133.672 154.427 133.87 154.634C134.359 154.981 138.036 155.254 137.893 154.56C137.8 154.02 135.903 153.264 134.539 152.997Z" fill="white" stroke="#263238" stroke-linecap="round" stroke-linejoin="round"/>
<path d="M133.392 151.658C133.245 151.628 133.092 151.632 132.947 151.671C132.802 151.71 132.667 151.782 132.555 151.882C132.442 151.982 132.354 152.107 132.298 152.247C132.243 152.386 132.22 152.537 132.233 152.687C132.23 153.028 132.361 153.355 132.599 153.599C133.175 154.008 137.559 154.337 137.373 153.512C137.243 152.873 134.992 151.974 133.392 151.658Z" fill="white" stroke="#263238" stroke-linecap="round" stroke-linejoin="round"/>
<path d="M133.045 149.687C132.886 149.658 132.723 149.665 132.567 149.71C132.412 149.754 132.268 149.833 132.149 149.942C132.029 150.05 131.935 150.185 131.876 150.335C131.816 150.486 131.792 150.648 131.805 150.809C131.803 151.179 131.945 151.535 132.202 151.801C132.822 152.247 137.571 152.607 137.391 151.714C137.236 151.013 134.787 150.04 133.045 149.687Z" fill="white" stroke="#263238" stroke-linecap="round" stroke-linejoin="round"/>
<path d="M132.332 147.808C132.173 147.779 132.01 147.787 131.854 147.831C131.699 147.876 131.555 147.955 131.436 148.064C131.316 148.172 131.222 148.307 131.163 148.457C131.103 148.607 131.079 148.769 131.092 148.93C131.088 149.114 131.121 149.297 131.189 149.467C131.257 149.638 131.359 149.792 131.489 149.922C132.109 150.369 136.858 150.728 136.679 149.836C136.517 149.135 134.075 148.18 132.332 147.808Z" fill="white" stroke="#263238" stroke-linecap="round" stroke-linejoin="round"/>
<path d="M149.004 103.912C149.004 103.912 149.748 111.501 151.41 115.016C153.071 118.532 153.629 120.193 155.297 120.193C156.965 120.193 160.108 117.788 161.584 115.568C162.323 114.496 163.004 113.384 163.624 112.239L163.989 111.315C163.989 111.315 166.581 109.455 167.139 108.171C167.697 106.888 166.581 105.952 164.547 107.062C164.547 107.062 165.285 101.327 163.803 97.8112C162.322 94.2958 151.044 97.6252 149.004 103.912Z" fill="white" stroke="#263238" stroke-miterlimit="10"/>
<path d="M146.989 106.795L159.488 109.343C159.488 109.343 159.575 111.284 158.248 111.898C157.597 112.177 156.879 112.267 156.178 112.157C155.478 112.047 154.822 111.743 154.287 111.278C153.319 110.397 153.319 108.723 153.319 108.723C153.319 108.723 152.526 108.103 152.439 108.723C152.35 109.301 152.052 109.825 151.602 110.198C151.151 110.57 150.58 110.765 149.996 110.744C149.413 110.716 148.851 110.514 148.383 110.165C147.915 109.816 147.561 109.336 147.367 108.785C147.152 108.142 147.025 107.472 146.989 106.795Z" fill="white" stroke="#263238" stroke-linecap="round" stroke-linejoin="round"/>
<path d="M159.488 109.343L164.684 106.615" stroke="#263238" stroke-linecap="round" stroke-linejoin="round"/>
<path d="M146.989 106.795L149.01 106.001" stroke="#263238" stroke-linecap="round" stroke-linejoin="round"/>
<path d="M152.532 109.256L151.651 112.518L152.712 112.778L152.972 115.332L154.646 114.892" fill="white"/>
<path d="M152.532 109.256L151.651 112.518L152.712 112.778L152.972 115.332L154.646 114.892" stroke="#263238" stroke-linecap="round" stroke-linejoin="round"/>
<path d="M154.38 91.7043C154.38 91.7043 146.977 97.4393 146.239 100.955C145.501 104.47 150.306 105.952 153.456 105.394C156.605 104.836 161.2 101.879 161.2 101.879C161.2 101.879 158.608 105.952 160.642 106.132C161.563 106.265 162.498 106.265 163.419 106.132C163.419 106.132 162.309 108.358 163.233 108.358C164.157 108.358 164.529 107.062 164.529 107.062C164.529 107.062 167.121 100.955 166.389 95.4057C165.657 89.8567 158.813 88.1889 154.38 91.7043Z" fill="#263238" stroke="#263238" stroke-miterlimit="10"/>
</svg>
